<svg width="1032" height="1032" viewBox="0 0 1032 1032" fill="none" xmlns="http://www.w3.org/2000/svg">
<path fill-rule="evenodd" clip-rule="evenodd" d="M516 1032C800.979 1032 1032 800.979 1032 516C1032 231.021 800.979 0 516 0C231.021 0 0 231.021 0 516C0 800.979 231.021 1032 516 1032ZM516 937C748.512 937 937 748.512 937 516C937 283.488 748.512 95 516 95C283.488 95 95 283.488 95 516C95 748.512 283.488 937 516 937Z" fill="white"/>
<path fill-rule="evenodd" clip-rule="evenodd" d="M516 0C231.021 0 0 231.021 0 516H95C95 283.488 283.488 95 516 95V0Z" fill="#1D4ED8"/>
</svg>
