<svg width="1747" height="296" viewBox="0 0 1747 296" fill="none" xmlns="http://www.w3.org/2000/svg">
<path d="M0.290484 291V0.0909004H203.131V57.1932H70.603V116.852H192.762V174.097H70.603V233.898H203.131V291H0.290484ZM458.813 72.8182L383.955 291H304.41L229.694 72.8182H302.847L343.046 223.102H345.319L385.66 72.8182H458.813ZM580.404 295.119C557.582 295.119 537.885 290.621 521.313 281.625C504.836 272.534 492.147 259.608 483.245 242.847C474.438 225.991 470.035 205.962 470.035 182.761C470.035 160.223 474.486 140.527 483.387 123.67C492.289 106.72 504.836 93.5568 521.029 84.1818C537.222 74.7121 556.304 69.9773 578.273 69.9773C593.804 69.9773 608.008 72.392 620.887 77.2216C633.766 82.0511 644.893 89.2008 654.268 98.6705C663.643 108.14 670.934 119.835 676.143 133.756C681.351 147.581 683.955 163.443 683.955 181.341V198.67H494.325V158.33H619.325C619.23 150.943 617.478 144.362 614.069 138.585C610.66 132.809 605.972 128.311 600.006 125.091C594.135 121.777 587.364 120.119 579.694 120.119C571.929 120.119 564.969 121.871 558.813 125.375C552.658 128.784 547.781 133.472 544.183 139.438C540.584 145.309 538.69 151.985 538.501 159.466V200.517C538.501 209.419 540.253 217.231 543.756 223.955C547.26 230.583 552.232 235.744 558.671 239.438C565.111 243.131 572.781 244.977 581.683 244.977C587.838 244.977 593.425 244.125 598.444 242.42C603.463 240.716 607.772 238.206 611.37 234.892C614.969 231.578 617.667 227.506 619.467 222.676L683.245 224.523C680.594 238.822 674.77 251.275 665.773 261.881C656.872 272.392 645.177 280.583 630.688 286.455C616.2 292.231 599.438 295.119 580.404 295.119ZM788.891 166.568V291H719.431V72.8182H785.482V112.875H787.897C792.727 99.5227 800.965 89.0587 812.613 81.483C824.261 73.8125 838.134 69.9773 854.232 69.9773C869.573 69.9773 882.878 73.4337 894.147 80.3466C905.511 87.1648 914.317 96.7292 920.567 109.04C926.912 121.256 930.037 135.555 929.942 151.938V291H860.482V165.574C860.577 153.453 857.499 143.983 851.249 137.165C845.094 130.347 836.524 126.938 825.539 126.938C818.247 126.938 811.808 128.547 806.221 131.767C800.728 134.892 796.467 139.39 793.437 145.261C790.501 151.133 788.986 158.235 788.891 166.568ZM1096.1 72.8182V123.955H958.458V72.8182H1096.1ZM987.293 20.5455H1056.75V222.392C1056.75 226.653 1057.42 230.11 1058.74 232.761C1060.16 235.318 1062.2 237.165 1064.85 238.301C1067.5 239.343 1070.67 239.864 1074.37 239.864C1077.02 239.864 1079.81 239.627 1082.75 239.153C1085.78 238.585 1088.05 238.112 1089.57 237.733L1100.08 287.875C1096.76 288.822 1092.08 290.006 1086.01 291.426C1080.05 292.847 1072.9 293.746 1064.57 294.125C1048.28 294.883 1034.31 292.989 1022.66 288.443C1011.11 283.803 1002.26 276.606 996.1 266.852C990.04 257.098 987.104 244.835 987.293 230.062V20.5455ZM1131.54 291V72.8182H1199.01V112.591H1201.28C1205.26 98.197 1211.75 87.4962 1220.75 80.4886C1229.74 73.3864 1240.21 69.8352 1252.14 69.8352C1255.36 69.8352 1258.67 70.072 1262.08 70.5455C1265.49 70.9242 1268.66 71.5398 1271.6 72.392V132.761C1268.28 131.625 1263.93 130.725 1258.53 130.062C1253.23 129.4 1248.49 129.068 1244.32 129.068C1236.09 129.068 1228.65 130.915 1222.02 134.608C1215.49 138.206 1210.33 143.273 1206.54 149.807C1202.85 156.246 1201 163.822 1201 172.534V291H1131.54ZM1390.42 295.119C1367.5 295.119 1347.8 290.432 1331.33 281.057C1314.94 271.587 1302.3 258.424 1293.4 241.568C1284.59 224.617 1280.19 204.968 1280.19 182.619C1280.19 160.176 1284.59 140.527 1293.4 123.67C1302.3 106.72 1314.94 93.5568 1331.33 84.1818C1347.8 74.7121 1367.5 69.9773 1390.42 69.9773C1413.33 69.9773 1432.98 74.7121 1449.37 84.1818C1465.84 93.5568 1478.49 106.72 1487.29 123.67C1496.19 140.527 1500.65 160.176 1500.65 182.619C1500.65 204.968 1496.19 224.617 1487.29 241.568C1478.49 258.424 1465.84 271.587 1449.37 281.057C1432.98 290.432 1413.33 295.119 1390.42 295.119ZM1390.84 242.705C1399.18 242.705 1406.23 240.148 1412.01 235.034C1417.79 229.92 1422.19 222.818 1425.22 213.727C1428.34 204.636 1429.91 194.125 1429.91 182.193C1429.91 170.072 1428.34 159.466 1425.22 150.375C1422.19 141.284 1417.79 134.182 1412.01 129.068C1406.23 123.955 1399.18 121.398 1390.84 121.398C1382.23 121.398 1374.94 123.955 1368.97 129.068C1363.1 134.182 1358.6 141.284 1355.48 150.375C1352.44 159.466 1350.93 170.072 1350.93 182.193C1350.93 194.125 1352.44 204.636 1355.48 213.727C1358.6 222.818 1363.1 229.92 1368.97 235.034C1374.94 240.148 1382.23 242.705 1390.84 242.705ZM1605.69 166.568V291H1536.23V72.8182H1602.28V112.875H1604.69C1609.52 99.5227 1617.76 89.0587 1629.41 81.483C1641.06 73.8125 1654.93 69.9773 1671.03 69.9773C1686.37 69.9773 1699.67 73.4337 1710.94 80.3466C1722.31 87.1648 1731.11 96.7292 1737.36 109.04C1743.71 121.256 1746.83 135.555 1746.74 151.938V291H1677.28V165.574C1677.37 153.453 1674.3 143.983 1668.05 137.165C1661.89 130.347 1653.32 126.938 1642.34 126.938C1635.04 126.938 1628.6 128.547 1623.02 131.767C1617.53 134.892 1613.26 139.39 1610.23 145.261C1607.3 151.133 1605.78 158.235 1605.69 166.568Z" fill="#1D4ED8"/>
</svg>
